<?xml version="1.0" encoding="UTF-8" standalone="no"?>
<svg
   xmlns:dc="http://purl.org/dc/elements/1.1/"
   xmlns:cc="http://creativecommons.org/ns#"
   xmlns:rdf="http://www.w3.org/1999/02/22-rdf-syntax-ns#"
   xmlns:svg="http://www.w3.org/2000/svg"
   xmlns="http://www.w3.org/2000/svg"
   xmlns:sodipodi="http://sodipodi.sourceforge.net/DTD/sodipodi-0.dtd"
   xmlns:inkscape="http://www.inkscape.org/namespaces/inkscape"
   version="1.0"
   width="238.000000pt"
   height="299.000000pt"
   viewBox="0 0 238.000000 299.000000"
   preserveAspectRatio="xMidYMid meet"
   id="svg3389"
   inkscape:version="0.91 r"
   sodipodi:docname="logo.svg">
  <defs
     id="defs3405" />
  <sodipodi:namedview
     pagecolor="#ffffff"
     bordercolor="#666666"
     borderopacity="1"
     objecttolerance="10"
     gridtolerance="10"
     guidetolerance="10"
     inkscape:pageopacity="0"
     inkscape:pageshadow="2"
     inkscape:window-width="1301"
     inkscape:window-height="744"
     id="namedview3403"
     showgrid="false"
     inkscape:zoom="1.1483982"
     inkscape:cx="60.834965"
     inkscape:cy="178.16722"
     inkscape:window-x="65"
     inkscape:window-y="24"
     inkscape:window-maximized="1"
     inkscape:current-layer="layer1" />
  <metadata
     id="metadata3391">
Created by potrace 1.13, written by Peter Selinger 2001-2015
<rdf:RDF>
  <cc:Work
     rdf:about="">
    <dc:format>image/svg+xml</dc:format>
    <dc:type
       rdf:resource="http://purl.org/dc/dcmitype/StillImage" />
  </cc:Work>
</rdf:RDF>
</metadata>
  <g
     inkscape:groupmode="layer"
     id="layer1"
     inkscape:label="Layer 1">
    <ellipse
       style="fill:#ffffff;fill-opacity:1;stroke:#000000;stroke-width:0.80000001"
       id="path3340"
       cx="120.51568"
       cy="149.22617"
       rx="107.97649"
       ry="137.23463" />
  </g>
  <g
     transform="translate(0.000000,299.000000) scale(0.100000,-0.100000)"
     fill="#000000"
     stroke="none"
     id="g3393">
    <path
       d="M1018 2975 c-768 -146 -1219 -1146 -926 -2055 144 -446 471 -784 866 -892 111 -31 353 -31 464 0 356 98 651 372 816 762 376 884 -30 1965 -816 2171 -102 27 -299 34 -404 14z m-258 -464 c14 -8 35 -23 48 -34 12 -11 22 -17 22 -12 0 5 28 -21 63 -56 57 -60 65 -65 105 -64 25 0 46 6 51 14 6 9 18 11 40 6 23 -5 33 -3 37 8 7 19 163 19 186 -1 9 -7 23 -10 32 -6 9 4 18 0 22 -9 11 -29 48 -12 111 50 35 35 67 63 72 63 4 0 16 9 26 20 10 12 24 19 31 16 7 -3 15 1 17 8 3 8 17 14 31 14 30 0 51 -29 55 -78 1 -19 7 -39 12 -44 14 -15 11 -154 -3 -158 -16 -6 -17 -188 -1 -206 13 -14 15 -232 2 -232 -4 0 -10 -11 -13 -25 -4 -14 -11 -25 -16 -25 -6 0 -8 -11 -4 -24 3 -15 1 -25 -9 -29 -8 -3 -18 -22 -21 -42 -4 -20 -14 -39 -22 -42 -11 -4 -13 -14 -9 -33 4 -17 1 -31 -9 -39 -8 -7 -13 -18 -10 -26 3 -7 -5 -21 -18 -32 -13 -10 -24 -25 -26 -33 -5 -23 -65 -78 -79 -73 -7 3 -16 -2 -19 -12 -4 -9 -13 -14 -20 -11 -7 3 -16 -4 -20 -17 -12 -41 -25 -49 -45 -31 -23 21 -40 10 -35 -22 3 -14 3 -31 0 -39 -8 -19 -44 -6 -44 16 0 11 -7 19 -15 19 -19 0 -33 -32 -17 -38 15 -5 15 -25 1 -39 -15 -15 -41 10 -45 43 -3 29 -22 56 -35 49 -4 -3 -6 -20 -4 -38 5 -40 -2 -67 -18 -64 -21 4 -27 21 -20 59 4 31 2 38 -11 38 -9 0 -16 -8 -16 -20 0 -11 -5 -20 -10 -20 -6 0 -10 -6 -9 -12 1 -7 1 -22 0 -32 -1 -19 -2 -19 -20 1 -21 22 -22 46 -3 65 8 8 9 15 1 25 -13 14 -43 18 -35 4 3 -5 -1 -14 -10 -21 -8 -7 -13 -19 -10 -27 8 -20 -21 -16 -30 5 -4 9 -8 22 -8 27 -1 6 -8 10 -16 10 -19 0 -42 23 -57 57 -8 17 -18 26 -26 22 -8 -3 -17 2 -21 11 -3 9 -10 13 -16 10 -12 -7 -41 19 -44 40 -1 8 -13 26 -26 40 -13 14 -20 25 -16 25 4 0 0 7 -9 16 -9 9 -15 26 -13 38 1 11 -7 34 -17 50 -11 16 -20 34 -20 40 -1 6 -11 32 -22 58 -12 25 -19 56 -16 67 3 13 0 23 -9 26 -20 8 -22 219 -3 235 10 8 12 36 9 107 -2 53 -8 99 -12 102 -4 4 -9 36 -11 72 -2 50 1 70 13 82 11 11 15 27 12 50 -8 65 33 90 94 58z m708 -1313 l0 -103 -56 -55 c-32 -30 -63 -55 -71 -57 -8 -1 -17 -7 -21 -14 -4 -6 -13 -8 -19 -5 -6 4 -14 0 -17 -9 -5 -12 -14 -14 -40 -9 -26 5 -35 2 -40 -10 -8 -20 -38 -21 -57 -1 -10 9 -27 13 -52 10 -30 -4 -45 0 -70 19 -18 14 -34 23 -37 21 -6 -6 -71 56 -90 85 -18 29 -21 203 -3 207 6 2 10 -5 11 -15 1 -9 6 -30 13 -46 6 -15 11 -33 10 -40 -3 -25 2 -35 15 -30 8 3 19 -3 26 -15 14 -27 44 -29 35 -2 -6 21 13 40 24 23 3 -6 19 -9 35 -8 21 3 36 -3 51 -20 28 -31 43 -30 51 1 7 29 34 34 34 7 0 -31 12 -33 36 -7 15 16 30 23 45 20 13 -3 31 3 40 11 17 15 19 14 25 -10 9 -36 39 -31 39 7 1 16 13 41 30 60 17 19 28 41 26 54 -1 13 0 27 4 33 15 25 22 -7 23 -102z m386 50 c11 -10 16 -18 11 -18 -5 0 2 -11 15 -25 12 -13 27 -22 31 -19 5 3 9 2 10 -3 0 -4 2 -21 4 -36 4 -29 -27 -73 -44 -62 -5 2 -14 -2 -20 -9 -7 -9 -24 -13 -42 -11 -19 3 -32 -1 -35 -9 -3 -8 -17 -12 -36 -10 -20 3 -38 -2 -50 -13 -10 -9 -18 -12 -18 -7 0 5 -7 1 -14 -9 -8 -10 -18 -17 -22 -15 -12 3 -104 -43 -104 -53 0 -5 -35 -19 -60 -23 -3 -1 -20 -11 -37 -24 -18 -13 -33 -21 -33 -18 0 12 -85 -43 -88 -57 -2 -8 12 -21 32 -31 19 -9 38 -21 41 -26 3 -5 14 -7 25 -5 11 2 20 1 20 -3 0 -9 79 -58 87 -54 3 2 9 -2 13 -9 5 -7 17 -13 27 -14 10 0 25 -5 33 -10 25 -16 80 -15 87 1 3 8 10 13 17 12 6 -1 21 3 32 10 18 10 27 8 55 -11 38 -25 47 -64 25 -107 -7 -15 -12 -44 -11 -65 3 -52 -35 -96 -79 -93 -30 2 -104 63 -99 80 3 9 -64 61 -82 64 -7 1 -22 10 -34 20 -12 11 -25 19 -29 20 -22 1 -103 47 -116 65 -8 12 -19 18 -24 15 -6 -3 -24 6 -41 20 -20 16 -39 24 -51 21 -11 -3 -20 -2 -20 3 0 4 -11 11 -25 14 -14 4 -25 11 -25 16 0 16 -27 11 -34 -6 -4 -9 -13 -14 -21 -10 -9 3 -18 -1 -21 -8 -3 -8 -14 -12 -26 -8 -12 3 -25 -1 -32 -10 -6 -8 -24 -18 -39 -22 -15 -3 -37 -18 -49 -32 -12 -13 -28 -22 -35 -20 -7 3 -13 1 -13 -4 0 -6 -9 -10 -19 -10 -11 0 -21 -5 -23 -11 -2 -5 -11 -11 -21 -13 -27 -4 -97 -94 -101 -129 -3 -29 -114 -54 -117 -27 -1 6 -2 15 -3 20 0 6 -6 14 -11 18 -6 4 -16 19 -24 34 -8 15 -18 25 -23 22 -16 -10 -43 30 -45 68 -1 30 4 47 23 67 24 27 27 28 127 27 100 -1 157 12 157 36 0 5 6 8 12 6 7 -3 19 1 26 8 7 7 20 10 28 7 9 -3 19 -1 23 5 3 6 13 12 20 14 15 3 51 34 51 43 0 11 -51 57 -66 59 -9 1 -19 7 -22 12 -13 17 -51 34 -66 28 -8 -3 -17 -1 -21 5 -3 6 -15 11 -25 11 -11 0 -27 11 -36 25 -9 14 -19 23 -22 21 -2 -3 -14 0 -26 6 -13 8 -57 11 -117 9 -78 -2 -102 1 -123 14 -35 24 -33 50 10 91 20 20 34 42 32 52 -2 9 7 28 19 42 18 19 34 25 78 27 42 2 57 -2 60 -12 3 -8 8 -23 12 -32 3 -10 5 -22 4 -27 -4 -17 30 -56 48 -56 10 0 24 -7 31 -15 7 -8 19 -15 27 -15 7 0 16 -7 20 -16 3 -8 11 -13 17 -11 7 3 23 -6 35 -19 13 -14 26 -22 29 -20 2 3 18 -8 34 -24 16 -17 36 -30 43 -30 7 0 22 -11 33 -24 15 -20 25 -24 50 -20 18 3 40 -1 54 -10 26 -17 89 -19 100 -3 3 6 27 11 53 11 25 1 49 6 53 11 10 15 86 48 96 42 2 -1 29 24 59 57 31 34 59 56 66 52 6 -4 11 -4 11 1 0 9 61 39 73 35 4 -1 7 2 7 7 0 5 10 13 22 17 28 9 51 31 44 43 -3 5 1 12 10 15 8 3 14 14 13 23 -3 31 1 44 10 39 5 -3 13 0 19 7 16 19 94 16 116 -5z"
       id="path3395" />
    <path
       d="M892 1785 c-13 -7 -39 -28 -58 -46 -29 -28 -32 -35 -20 -48 7 -9 19 -31 27 -48 l14 -33 81 0 c71 0 83 3 102 23 12 13 22 29 22 35 0 7 5 12 10 12 6 0 10 7 10 15 0 8 -4 15 -10 15 -5 0 -10 6 -10 13 0 7 -15 27 -33 45 -26 26 -41 32 -72 31 -22 -1 -50 -7 -63 -14z"
       id="path3397" />
    <path
       d="M1405 1790 c-3 -5 -16 -10 -28 -11 -56 -2 -107 -63 -78 -92 6 -6 11 -18 11 -27 0 -29 23 -66 49 -78 50 -24 87 -13 149 42 28 26 32 36 32 82 0 55 -18 82 -51 76 -9 -2 -20 2 -24 8 -8 13 -52 13 -60 0z"
       id="path3399" />
    <path
       d="M1170 1680 c0 -5 0 -12 0 -15 0 -2 -12 -16 -26 -30 -14 -14 -22 -30 -19 -35 3 -6 -1 -13 -9 -16 -9 -3 -21 -24 -26 -46 -10 -36 -9 -42 11 -59 37 -32 65 -19 90 41 4 11 11 4 22 -22 14 -33 45 -53 48 -30 8 77 4 104 -18 128 -13 14 -21 29 -18 34 3 4 -2 13 -10 20 -8 7 -15 19 -15 26 0 8 -7 14 -15 14 -8 0 -15 -4 -15 -10z"
       id="path3401" />
  </g>
  <path
     style="fill:#ff0000;fill-opacity:1;stroke:#ff0000;stroke-width:0.61573309"
     d="m 106.29247,170.27363 c -0.37576,-1.13854 -1.6441,-3.66583 -2.81855,-5.6162 -1.17446,-1.95037 -2.13537,-3.87048 -2.13537,-4.26693 0,-0.88172 4.21544,-4.99406 8.11228,-7.91387 3.4931,-2.61729 9.56641,-3.95767 13.33472,-2.94297 2.6321,0.70875 8.55756,6.23163 9.12911,8.50887 0.19371,0.77179 0.87449,1.68278 1.51284,2.02441 1.49376,0.79944 1.49376,2.81915 0,3.61859 -0.63835,0.34163 -1.32,1.2561 -1.51477,2.03214 -0.54406,2.16769 -4.29099,5.42722 -6.94717,6.04348 -1.31132,0.30425 -5.8955,0.55978 -10.18706,0.56786 l -7.80285,0.0147 -0.68318,-2.07007 z"
     id="path3407"
     inkscape:connector-curvature="0"
     transform="scale(0.8,0.8)" />
  <path
     style="fill:#ff0000;fill-opacity:1;stroke:#ff0000;stroke-width:0.61573309"
     d="m 171.21898,176.15516 c -3.31812,-1.553 -6.31309,-5.07745 -6.75947,-7.9545 -0.19816,-1.27719 -0.93728,-3.48892 -1.6425,-4.91495 -1.642,-3.32035 -1.17537,-5.28769 1.9621,-8.27228 1.78413,-1.69721 3.29281,-2.46551 5.95655,-3.03341 1.962,-0.4183 4.43121,-1.27211 5.48714,-1.89736 2.36407,-1.39984 3.70243,-1.42421 6.08465,-0.1108 1.01596,0.56013 3.07954,1.18185 4.58573,1.3816 3.74145,0.49619 5.03909,2.71288 5.17033,8.83221 0.12581,5.8667 -0.81774,7.90126 -5.37402,11.58792 -6.50238,5.26133 -10.91853,6.51207 -15.47051,4.38157 z"
     id="path3409"
     inkscape:connector-curvature="0"
     transform="scale(0.8,0.8)" />
</svg>
